<?xml version="1.0" standalone="no"?><!DOCTYPE svg PUBLIC "-//W3C//DTD SVG 1.1//EN" "http://www.w3.org/Graphics/SVG/1.1/DTD/svg11.dtd"><svg t="1583485631117" class="icon" viewBox="0 0 1024 1024" version="1.1" xmlns="http://www.w3.org/2000/svg" p-id="2991" xmlns:xlink="http://www.w3.org/1999/xlink" width="64" height="64"><defs><style type="text/css"></style></defs><path d="M510.293333 515.072a7.978667 7.978667 0 0 0-12.586666 0L385.706667 656.768a7.978667 7.978667 0 0 0 6.314666 12.928h73.898667v242.346667c0 4.437333 3.584 8.021333 7.978667 8.021333h60.032a8.021333 8.021333 0 0 0 7.978666-7.978667v-242.346666h74.112c6.698667 0 10.410667-7.68 6.314667-12.842667l-112-141.824z" p-id="2992" fill="#ffffff"></path><path d="M780.373333 310.186667C744.234667 178.176 625.493333 85.333333 487.594667 85.333333c-90.112 0-170.581333 33.28-226.602667 93.696-50.176 54.101333-77.226667 127.36-77.824 208.768C95.744 421.717333 42.666667 497.450667 42.666667 591.872c0 117.717333 95.274667 213.461333 212.437333 213.461333H362.666667V725.333333H255.104c-73.045333 0-132.437333-59.861333-132.437333-133.461333 0-67.754667 41.642667-118.784 111.36-136.448l32.597333-8.234667-2.56-33.536C258.56 340.906667 277.802667 278.613333 319.701333 233.386667c40.704-43.946667 100.309333-68.096 167.936-68.096 108.928 0 201.642667 79.061333 220.458667 187.904l5.290667 30.72 31.061333 2.389333c104.96 8.021333 178.218667 77.738667 178.218667 169.514667 0 93.44-75.349333 169.472-167.978667 169.472h-88.021333v80h88.021333c136.746667 0 247.978667-111.914667 247.978667-249.472 0-126.122667-89.984-223.701333-222.293334-245.717334z" p-id="2993" fill="#ffffff"></path></svg>